<?xml version="1.0" encoding="UTF-8"?>
<svg id="_图层_1" data-name="图层_1" xmlns="http://www.w3.org/2000/svg" version="1.1" viewBox="0 0 2048 2048">
  <!-- Generator: Adobe Illustrator 30.2.1, SVG Export Plug-In . SVG Version: 2.1.1 Build 1)  -->
  <defs>
    <style>
      .st0 {
        fill: #0eb677;
      }

      .st1 {
        fill: #13b584;
      }
    </style>
  </defs>
  <path class="st0" d="M412.74,922.3c-7.45-24.89-13.15-45.73-17.55-71.4-13.06-75.24-9.78-152.4,9.61-226.26,4.14-15.82,8.16-34.34,17.8-47.36,32.79-44.3,68.91-83.57,110.53-119.53,104.82-91.5,233.42-151.42,370.9-172.82,203.32-32.07,411.08,17.52,578,137.96l-1.57,3.78c-48.76-18.13-99.77-29.46-151.62-33.7-59.43-4.67-119.23-.39-177.39,12.71-192.93,42.95-312.07,158.35-457.79,280.72l-280.93,235.89Z"/>
  <path class="st0" d="M1637.93,1127.77c24.11,95.41,35.76,183.01,7.68,280.66-4.55,15.84-9.34,44.61-18.01,57.33-213.82,313.66-674.05,393.07-994.14,200.83-17.22-10.35-46.15-28.48-60.42-41.34l-1.32-4.79c40.17,13.93,78.58,25.05,121.05,30.71,126.14,16.83,245.39-8.69,359.07-63.27,92.08-44.22,146.16-90.6,221.97-154.41l105.31-88.46,258.81-217.28Z"/>
  <path class="st0" d="M313.46,785.15c-1.32,164.49,65.65,315.92,180.11,433.23,121.56,124.6,299.34,207.14,474.66,208.36,70.65.73,140.61-13.87,205.07-42.79,18.89-8.6,33.09-17.55,51.01-26.51-113.22,126.49-271.98,202.93-441.47,212.53-142.27,7.01-268.72-33.59-376.22-129.22-13.44-11.96-28.82-41.56-37.66-58.06-56.38-105.78-88.12-222.94-92.86-342.72-2.76-73.03,8.41-185.89,33.55-255.3,2.06-.15,1.94-.2,3.81.48Z"/>
  <path class="st0" d="M857.35,660.11c3.83-4.93,13.51-13.38,18.67-17.89,160.26-139.83,390.31-208.59,595.68-136.94,52.48,18.16,101.43,45.27,144.67,80.12,6.76,5.37,25.22,20.36,29.58,26.47,17.56,24.55,36.53,57.48,49.53,84.51,63.12,130.17,88.96,275.28,74.63,419.24-3.95,42.48-14.07,99.87-28.24,140.4-3.66,1.6-2.27.99-5.1-1.02.17-162.82-77.4-323.12-191.28-437.22-122.31-122.54-295.99-196.86-469.48-196.83-80.48.02-176.88,22.4-245.09,66.44,4.03-4.49,10.07-11.6,14.37-15.41,4.39-4.83,7.18-7.54,12.06-11.88Z"/>
  <path class="st0" d="M1153.93,694.5c209.11,33.11,361.43,156.95,450,347.23l-185.43,155.68c-40.49,34.28-81.19,68.32-122.09,102.12l-1.33-3.31c6.72-10.17,14.29-20.15,20.6-30.5,109.75-179.87,55.92-431.53-120.27-547.49-13.35-8.71-27.21-16.63-41.49-23.72Z"/>
  <path class="st0" d="M717.51,780.33c9.83-9.31,37.78-32.33,48.24-40.12-3.74,5.08-7.55,9.88-11.08,15.12-63.72,88.81-89.73,199.21-72.35,307.13,14.53,94.76,67.74,193.3,145.77,250.39,13.24,9.66,27.03,18.53,41.32,26.56,8.73,4.4,18.76,9.77,27.64,13.58-8.14-.79-17.14-1.59-25.07-3.68-12.15.55-76.22-19.8-88.99-24.52-149.24-55.13-271.53-172.35-338.26-316.09,91.38-74.98,181.14-153.81,272.78-228.37Z"/>
  <path class="st1" d="M717.51,780.33c9.83-9.31,37.78-32.33,48.24-40.12-3.74,5.08-7.55,9.88-11.08,15.12-11.06.72-15.34,14-26.43,17.54-2,.64-7.65,6.27-10.73,7.47Z"/>
  <path class="st1" d="M1741.88,1256.02c-.23,3.61-3.82,11.68-5.24,15.23.05-5.35.18-10.92.13-16.25,2.83,2.01,1.44,2.62,5.1,1.02Z"/>
  <path class="st1" d="M1482.04,422.88c3.1,2.73,7.15,5.51,10.57,7.94-3.42-1.02-6.8-2.16-10.13-3.42-.67-.25-1.34-.49-2-.74l1.57-3.78Z"/>
  <path class="st1" d="M313.63,771.78c.05,4.46,0,8.91-.18,13.37-1.87-.68-1.74-.63-3.81-.48.79-3.86,2.7-9,3.98-12.89Z"/>
  <path class="st1" d="M571.72,1620.47l1.32,4.79c-4.43-3.03-8.82-6.1-13.13-9.3l3.57,1.33c2.7,1.02,5.66,2,8.23,3.17Z"/>
  <path class="st1" d="M1295.09,1296.22l1.33,3.31c-.7.47-6.25,4.6-6.81,3.84.38-1.59,4.23-5.82,5.47-7.15Z"/>
</svg>